# xmcd
#
# Track frame offsets:
#	185
#	16810
#	30982
#	47440
#	69462
#	87300
#	104525
#	120620
#	134740
#	153375
#
# Disc length: 2345 seconds
#
# Revision: 0
# Processed by: cddbd v1.4b42PL1 Copyright (c) Steve Scherf et al.
# Submitted via: EasyCDDAExtractor 4.5.0.2
#
DISCID=7b09270a
DTITLE=Ron Levy's Wild Kingdom - Featuring Ronnie Earl, Kim Wilson, Wayne Benn
DTITLE=et and Jimmie Vaughan
DYEAR=1987
DGENRE=Blues
TTITLE0=I Know You Know I Know
TTITLE1=Chicken Fried Snake
TTITLE2=So Many Roads
TTITLE3=Why You Stay Out So Late ?
TTITLE4=Party In Nogales
TTITLE5=Big Town Playboy
TTITLE6=It's Hot In Here
TTITLE7=My Heart's In Trouble
TTITLE8=Knee Squeeze
TTITLE9=Must Have Missed A Turn Somewhere
EXTD=
EXTT0=
EXTT1=
EXTT2=
EXTT3=
EXTT4=
EXTT5=
EXTT6=
EXTT7=
EXTT8=
EXTT9=
PLAYORDER=
